<svg version="1.1" id="Capa_1" xmlns="http://www.w3.org/2000/svg" xmlns:xlink="http://www.w3.org/1999/xlink" x="0px" y="0px"
	 viewBox="0 0 512 512" style="enable-background:new 0 0 512 512;" xml:space="preserve">
<g>
	<g>
		<path d="M256,0C114.615,0,0,114.615,0,256s114.615,256,256,256s256-114.615,256-256C511.835,114.683,397.317,0.165,256,0z
			 M256,490.667C126.397,490.667,21.333,385.603,21.333,256S126.397,21.333,256,21.333S490.667,126.397,490.667,256
			C490.52,385.542,385.542,490.52,256,490.667z"/>
	</g>
</g>
<g>
	<g>
		<path d="M412.733,223.874c-6.283-30.703-21.444-58.885-43.602-81.048l-15.083,15.125c54.281,54.099,54.429,141.958,0.33,196.24
			s-141.958,54.429-196.24,0.33c-54.281-54.099-54.429-141.959-0.33-196.24c21.071-21.142,48.399-34.926,77.925-39.306
			l-22.656,36.373l18.133,11.275l33.835-54.325c3.111-4.999,1.583-11.573-3.413-14.688l-54.315-33.835l-11.285,18.133L223.904,99.2
			C137.333,116.916,81.514,201.457,99.23,288.029s102.257,142.39,188.829,124.674S430.449,310.446,412.733,223.874z"/>
	</g>
</g>
<g>
</g>
<g>
</g>
<g>
</g>
<g>
</g>
<g>
</g>
<g>
</g>
<g>
</g>
<g>
</g>
<g>
</g>
<g>
</g>
<g>
</g>
<g>
</g>
<g>
</g>
<g>
</g>
<g>
</g>
</svg>
